<svg width="283" height="146" viewBox="0 0 283 146" fill="none" xmlns="http://www.w3.org/2000/svg">
<path d="M265.474 35.8967C275.153 35.8967 283 27.861 283 17.9484C283 8.03576 275.153 0 265.474 0C255.794 0 247.947 8.03576 247.947 17.9484C247.947 27.861 255.794 35.8967 265.474 35.8967Z" fill="#B4C0FC"/>
<path d="M122.464 35.8967C132.144 35.8967 139.99 27.861 139.99 17.9484C139.99 8.03576 132.144 0 122.464 0C112.784 0 104.938 8.03576 104.938 17.9484C104.938 27.861 112.784 35.8967 122.464 35.8967Z" fill="#B4C0FC"/>
<path d="M111.418 61.4619C111.418 55.2145 116.363 50.1499 122.464 50.1499C128.565 50.1499 133.51 55.2145 133.51 61.4619C133.51 79.5728 141.104 95.8697 153.229 107.13L155.717 109.317L155.789 109.376C166.161 118.153 179.448 123.376 193.968 123.376C227.405 123.376 254.427 95.6436 254.427 61.4619C254.427 55.2146 259.373 50.1502 265.473 50.1499C271.574 50.1499 276.519 55.2145 276.519 61.4619C276.519 108.123 239.621 146 193.968 146C174.173 146 155.939 138.852 141.715 126.815C123.219 111.397 111.418 87.8052 111.418 61.4619Z" fill="#B4C0FC"/>
<path d="M0 61.4619C0 55.2145 4.94549 50.1499 11.0461 50.1499C17.1466 50.1499 22.0921 55.2145 22.0921 61.4619C22.0921 95.6278 49.1717 123.375 82.6225 123.376C97.1378 123.376 110.44 118.155 120.903 109.354L120.974 109.295C124.137 106.678 127.019 103.666 129.547 100.384C133.324 95.4778 140.275 94.6376 145.066 98.5058C149.854 102.374 150.674 109.486 146.9 114.391C143.408 118.927 139.385 123.127 134.919 126.83L134.926 126.837C120.645 138.85 102.424 146 82.6225 146C36.9854 145.999 0 108.138 0 61.4619Z" fill="#B4C0FC"/>
</svg>
