<svg width="351" height="49" viewBox="0 0 351 49" fill="none" xmlns="http://www.w3.org/2000/svg">
<path d="M49.3341 29.1168C51.0699 29.1168 52.477 27.6656 52.477 25.8755C52.477 24.0854 51.0699 22.6343 49.3341 22.6343C47.5984 22.6343 46.1913 24.0854 46.1913 25.8755C46.1913 27.6656 47.5984 29.1168 49.3341 29.1168Z" fill="#0046B6"/>
<path d="M23.6899 29.1168C25.4256 29.1168 26.8327 27.6656 26.8327 25.8755C26.8327 24.0854 25.4256 22.6343 23.6899 22.6343C21.9542 22.6343 20.5471 24.0854 20.5471 25.8755C20.5471 27.6656 21.9542 29.1168 23.6899 29.1168Z" fill="#0046B6"/>
<path d="M21.7091 33.7335C21.7091 32.6053 22.596 31.6907 23.6899 31.6907C24.7838 31.6907 25.6707 32.6053 25.6707 33.7335C25.6707 37.0041 27.0323 39.9471 29.2066 41.9805L29.6528 42.3755L29.6657 42.3862C31.5256 43.9712 33.9081 44.9144 36.512 44.9144C42.5078 44.9144 47.3533 39.9063 47.3533 33.7335C47.3533 32.6053 48.2401 31.6908 49.334 31.6907C50.428 31.6907 51.3148 32.6053 51.3148 33.7335C51.3148 42.16 44.6984 49 36.512 49C32.9623 49 29.6926 47.7092 27.142 45.5355C23.8253 42.7511 21.7091 38.4908 21.7091 33.7335Z" fill="#0046B6"/>
<path d="M1.72986 33.7335C1.72986 32.6053 2.61668 31.6907 3.71062 31.6907C4.80457 31.6907 5.69139 32.6053 5.69139 33.7335C5.69139 39.9034 10.5472 44.9142 16.5456 44.9144C19.1485 44.9144 21.5338 43.9716 23.4099 42.3822L23.4228 42.3715C23.99 41.899 24.5068 41.3551 24.96 40.7623C25.6373 39.8763 26.8838 39.7246 27.7428 40.4231C28.6014 41.1217 28.7485 42.4061 28.0717 43.2919C27.4455 44.1109 26.7241 44.8694 25.9233 45.5381L25.9245 45.5395C23.3638 47.7088 20.0963 49 16.5456 49C8.36202 48.9998 1.72986 42.1626 1.72986 33.7335Z" fill="#0046B6"/>
<path d="M25.6441 15.2665C25.6441 11.7777 24.0944 8.66131 21.662 6.62448L21.6491 6.61384C19.7892 5.02879 17.4067 4.08561 14.8028 4.08561C8.80702 4.08564 3.96155 9.09376 3.96152 15.2665C3.96152 16.3947 3.0747 17.3093 1.98076 17.3093C0.886817 17.3093 0 16.3947 0 15.2665C2.78755e-05 6.84009 6.61648 2.87609e-05 14.8028 0C18.3461 0 21.61 1.28597 24.1586 3.45255C27.4835 6.23672 29.6056 10.5024 29.6057 15.2665C29.6057 16.3947 28.7188 17.3093 27.6249 17.3093C26.531 17.3092 25.6441 16.3947 25.6441 15.2665Z" fill="#0046B6"/>
<path d="M45.6097 15.2665C45.6097 9.09649 40.754 4.08561 34.7555 4.08561C32.1528 4.08567 29.7685 5.02856 27.8925 6.61783L27.8796 6.62847C27.3122 7.10108 26.7944 7.64477 26.3411 8.23771C25.6638 9.12349 24.4185 9.27534 23.5595 8.57685C22.7005 7.87831 22.5534 6.59409 23.2307 5.70815C23.7816 4.98762 24.4043 4.31243 25.0915 3.70524L25.3894 3.44989C27.9483 1.28682 31.2105 6.21728e-05 34.7555 0C42.9392 0 49.5712 6.83733 49.5712 15.2665C49.5712 16.3947 48.6844 17.3093 47.5905 17.3093C46.4968 17.309 45.6097 16.3945 45.6097 15.2665Z" fill="#0046B6"/>
<path d="M331.759 7.70221C333.162 7.78637 334.426 8.01078 335.554 8.37546C336.709 8.71209 337.671 9.203 338.441 9.8482C339.238 10.4934 339.829 11.2789 340.214 12.2046C340.627 13.1303 340.778 14.1823 340.668 15.3605C340.476 17.3802 339.609 18.9371 338.07 20.0312C336.53 21.1252 334.44 21.6722 331.8 21.6722C331.086 21.6722 330.398 21.6722 329.738 21.6722C329.106 21.6442 328.473 21.6021 327.841 21.546C327.208 21.4618 326.59 21.3356 325.985 21.1673C325.38 20.999 324.761 20.7605 324.129 20.4519C322.919 19.8067 322.094 18.9652 321.654 17.9272C321.242 16.8613 321.035 15.7812 321.035 14.6872C321.035 12.2747 321.957 10.5074 323.799 9.38534C325.669 8.26325 328.322 7.70221 331.759 7.70221ZM349.165 37.2833C349.192 37.2833 349.288 37.3113 349.453 37.3674C349.618 37.4235 349.797 37.5077 349.99 37.6199C350.21 37.7601 350.402 37.9285 350.567 38.1248C350.759 38.3492 350.883 38.6017 350.938 38.8822C351.103 39.9482 350.938 40.7758 350.443 41.3649C350.141 41.7576 349.811 41.996 349.453 42.0802C349.096 42.1643 348.903 42.2064 348.876 42.2064H327.346C326.301 42.2064 325.476 42.0241 324.871 41.6594C324.266 41.3228 323.964 40.8319 323.964 40.1867V36.4417C323.909 35.8245 323.909 35.1934 323.964 34.5482C324.019 33.9591 324.239 33.4822 324.624 33.1175C325.009 32.7528 325.49 32.5705 326.067 32.5705C326.205 32.5705 326.384 32.5845 326.604 32.6126C326.851 32.6126 327.043 32.6406 327.181 32.6967C327.538 32.8089 327.813 32.9772 328.006 33.2017C328.198 33.4261 328.35 33.6926 328.46 34.0011C328.57 34.2817 328.638 34.5902 328.666 34.9269C328.693 35.2354 328.721 35.544 328.748 35.8526C328.748 36.077 328.762 36.3155 328.79 36.5679C328.817 36.7923 328.858 37.0027 328.913 37.1991C328.968 37.2272 329.216 37.2552 329.656 37.2833C330.123 37.3394 330.838 37.3674 331.8 37.3674C332.625 37.3674 333.354 37.3534 333.986 37.3253C334.646 37.2973 334.99 37.2833 335.018 37.2833H349.165ZM350.155 29.2463C350.127 29.4146 350.086 29.639 350.031 29.9196C350.003 30.172 349.962 30.4385 349.907 30.719C349.88 30.9996 349.838 31.2661 349.783 31.5185C349.728 31.7429 349.673 31.9393 349.618 32.1076C349.481 32.4443 349.261 32.7528 348.958 33.0333C348.656 33.2297 348.326 33.3419 347.968 33.37C347.639 33.398 347.322 33.384 347.02 33.3279C346.827 33.2718 346.649 33.2297 346.484 33.2017C346.346 33.1736 346.209 33.0895 346.071 32.9492C345.329 32.1918 344.999 31.1258 345.081 29.7512L345.164 21.5881C344.174 21.5881 343.239 21.5179 342.359 21.3777C341.479 21.2093 340.874 20.8867 340.544 20.4099C340.352 20.1293 340.256 19.8067 340.256 19.4421C340.256 19.0774 340.338 18.7267 340.503 18.3901C340.668 18.0254 340.888 17.7309 341.163 17.5065C341.438 17.254 341.741 17.1137 342.07 17.0857C342.4 17.0857 342.84 17.0716 343.39 17.0436C343.94 17.0155 344.531 17.0015 345.164 17.0015V12.3729C345.164 12.0643 345.164 11.7137 345.164 11.3209C345.164 10.9282 345.178 10.5495 345.205 10.1848C345.26 9.7921 345.343 9.42742 345.453 9.09079C345.562 8.75417 345.7 8.48767 345.865 8.29131C346.167 7.98273 346.47 7.80039 346.772 7.74429C347.075 7.68818 347.391 7.66013 347.721 7.66013C348.683 7.66013 349.343 8.13702 349.701 9.09079C349.921 9.70794 350.044 10.3251 350.072 10.9422C350.099 11.5594 350.127 12.1906 350.155 12.8358V13.0462C350.21 15.1781 350.223 17.2961 350.196 19.4C350.168 21.4758 350.155 23.5096 350.155 25.5013V29.2463ZM334.234 28.4047C334.261 29.6671 334.193 30.7471 334.028 31.6448C333.89 32.5424 333.505 33.1876 332.873 33.5804C332.543 33.7767 332.158 33.903 331.718 33.9591C331.305 33.9871 330.893 33.945 330.481 33.8328C330.096 33.7206 329.752 33.5523 329.449 33.3279C329.174 33.0754 329.023 32.7809 328.996 32.4442C328.941 32.0796 328.9 31.5326 328.872 30.8032C328.872 30.0738 328.872 29.2603 328.872 28.3627C328.185 28.3346 327.36 28.3066 326.397 28.2785C325.435 28.2224 324.596 28.1943 323.881 28.1943C323.496 28.1382 323.111 28.0821 322.726 28.026C322.342 27.9419 321.984 27.7175 321.654 27.3528C321.324 27.0162 321.159 26.5252 321.159 25.88C321.159 25.2909 321.324 24.8 321.654 24.4073C321.847 24.1829 322.08 24.0146 322.355 23.9024C322.658 23.7901 322.946 23.706 323.221 23.6499C323.496 23.5938 323.73 23.5657 323.923 23.5657C324.143 23.5657 324.266 23.5657 324.294 23.5657H338.4C338.95 23.5096 339.513 23.5096 340.091 23.5657C340.696 23.6218 341.204 23.8463 341.617 24.239C342.139 24.772 342.4 25.3751 342.4 26.0483C342.4 26.4691 342.29 26.8619 342.07 27.2265C341.85 27.5632 341.548 27.8016 341.163 27.9419C340.668 28.1663 340.118 28.3066 339.513 28.3627C338.936 28.4188 338.386 28.4328 337.863 28.4047H334.234ZM335.306 15.5288C335.444 14.7153 335.279 14.042 334.811 13.509C334.371 12.948 333.711 12.5412 332.832 12.2887C332.254 12.1204 331.594 12.0222 330.852 11.9942C330.137 11.9381 329.436 11.9802 328.748 12.1204C328.088 12.2607 327.511 12.5132 327.016 12.8778C326.521 13.2145 326.219 13.6914 326.109 14.3085C325.944 15.1501 326.122 15.8794 326.645 16.4966C327.195 17.1137 328.267 17.4924 329.862 17.6327C330.412 17.6888 330.976 17.7168 331.553 17.7168C332.13 17.7168 332.667 17.6607 333.161 17.5485C333.684 17.4083 334.124 17.2119 334.481 16.9594C334.866 16.6789 335.128 16.2862 335.265 15.7812L335.306 15.5288Z" fill="#0046B6"/>
<path d="M289.315 26.1746C288.215 25.3891 287.431 24.267 286.964 22.8083C286.689 22.079 286.496 21.3777 286.386 20.7044C286.304 20.0312 286.263 19.3439 286.263 18.6426C286.263 17.9132 286.318 17.24 286.427 16.6228C286.565 15.9776 286.744 15.3464 286.964 14.7293C287.239 14.1402 287.527 13.5932 287.83 13.0882C288.16 12.5552 288.545 12.0924 288.985 11.6996C289.425 11.2228 289.878 10.816 290.346 10.4794C290.841 10.1427 291.404 9.86223 292.037 9.63781C292.587 9.35729 293.178 9.16092 293.81 9.04871C294.47 8.90845 295.158 8.83832 295.873 8.83832C296.368 8.75417 296.849 8.75417 297.316 8.83832C297.536 8.83832 297.77 8.85235 298.017 8.8804C298.292 8.90845 298.54 8.95053 298.76 9.00664C298.87 9.06274 298.98 9.09079 299.09 9.09079C299.227 9.09079 299.365 9.11884 299.502 9.17495C299.64 9.17495 299.763 9.203 299.873 9.2591C300.011 9.28716 300.121 9.32924 300.203 9.38534C300.506 9.4695 300.781 9.56768 301.028 9.67989C301.303 9.76404 301.578 9.87625 301.853 10.0165C302.321 10.2409 302.788 10.4934 303.255 10.7739C303.42 10.8581 303.599 10.9843 303.792 11.1526C304.012 11.3209 304.218 11.5033 304.41 11.6996C304.905 12.2046 305.304 12.7236 305.606 13.2565C305.771 13.5371 305.909 13.8316 306.019 14.1402C306.156 14.4488 306.253 14.7854 306.308 15.1501C306.39 15.4586 306.459 15.7812 306.514 16.1179C306.569 16.4264 306.624 16.735 306.679 17.0436C306.734 17.3522 306.775 17.6607 306.803 17.9693C306.83 18.2779 306.816 18.6145 306.761 18.9792C306.761 19.1475 306.748 19.3439 306.72 19.5683C306.693 19.7647 306.679 19.947 306.679 20.1153C306.624 20.3397 306.583 20.5641 306.555 20.7886C306.528 21.013 306.473 21.2093 306.39 21.3777C306.225 22.4717 305.881 23.4816 305.359 24.4073C305.057 24.8842 304.713 25.305 304.328 25.6696C303.97 26.0343 303.558 26.385 303.091 26.7216C302.733 26.946 302.376 27.1424 302.018 27.3107C301.661 27.479 301.289 27.6052 300.905 27.6894C300.547 27.8016 300.176 27.8998 299.791 27.9839C299.433 28.0401 299.062 28.1102 298.677 28.1943C298.54 28.2504 298.402 28.2785 298.265 28.2785C298.127 28.2785 297.99 28.2785 297.852 28.2785C297.77 28.2785 297.66 28.2785 297.522 28.2785C297.412 28.2785 297.289 28.3066 297.151 28.3627H296.409C296.299 28.3627 296.175 28.3627 296.038 28.3627C295.928 28.3627 295.804 28.3346 295.666 28.2785C295.501 28.2785 295.323 28.2785 295.13 28.2785C294.965 28.2785 294.8 28.2504 294.635 28.1943C294.415 28.1943 294.209 28.1803 294.017 28.1523C293.852 28.1242 293.673 28.1102 293.48 28.1102C292.738 27.998 292.023 27.7736 291.336 27.4369C290.951 27.2406 290.593 27.0582 290.263 26.8899C289.933 26.6936 289.617 26.4551 289.315 26.1746ZM315.918 16.3283C315.973 16.8893 316 17.4644 316 18.0535C316 18.6426 316 19.2597 316 19.9049V26.7216C316 27.3668 316 27.9699 316 28.531C316 29.092 315.973 29.639 315.918 30.172V34.9689C315.863 35.4178 315.849 35.8666 315.876 36.3155C315.904 36.7362 315.918 37.143 315.918 37.5357C315.918 37.8162 315.918 38.0827 315.918 38.3352C315.918 38.5877 315.89 38.8261 315.835 39.0505C315.835 39.4994 315.739 39.8641 315.547 40.1446C315.492 40.2848 315.437 40.3971 315.382 40.4812C315.327 40.5934 315.272 40.7197 315.217 40.8599C315.107 40.9441 314.997 41.0422 314.887 41.1545C314.777 41.2667 314.612 41.3649 314.392 41.449C314.144 41.6454 313.855 41.7716 313.526 41.8277C313.196 41.8838 312.852 41.8838 312.494 41.8277C312.027 41.7155 311.683 41.5332 311.463 41.2807C311.243 41.1404 311.037 40.8459 310.845 40.3971C310.762 40.2007 310.693 40.0183 310.638 39.85C310.583 39.6817 310.556 39.4994 310.556 39.303C310.501 39.1628 310.46 39.0225 310.432 38.8822C310.405 38.742 310.391 38.6298 310.391 38.5456V38.0827L310.308 13.1303C310.308 12.7656 310.308 12.401 310.308 12.0363C310.336 11.6716 310.391 11.2648 310.473 10.816C310.556 10.0586 310.803 9.44144 311.216 8.96456C311.601 8.68403 311.903 8.50169 312.123 8.41754C312.316 8.36143 312.494 8.33338 312.659 8.33338C312.852 8.33338 313.058 8.33338 313.278 8.33338C313.498 8.33338 313.718 8.36143 313.938 8.41754C314.158 8.47364 314.378 8.57183 314.598 8.71209C314.955 8.99261 315.217 9.34326 315.382 9.76405C315.519 10.0726 315.629 10.3812 315.712 10.6898C315.794 10.9983 315.835 11.3069 315.835 11.6155C315.835 11.9241 315.835 12.2607 315.835 12.6254C315.835 12.962 315.863 13.2846 315.918 13.5932V16.3283ZM306.844 32.9913C307.201 33.1035 307.517 33.2578 307.792 33.4541C308.067 33.7346 308.274 34.0152 308.411 34.2957C308.576 34.5762 308.659 34.8848 308.659 35.2214C308.659 35.6983 308.507 36.1191 308.205 36.4838C307.93 36.8484 307.627 37.0869 307.297 37.1991C307.16 37.2552 307.023 37.2973 306.885 37.3253C306.748 37.3534 306.61 37.3674 306.473 37.3674C306.308 37.4235 306.156 37.4516 306.019 37.4516C305.881 37.4516 305.744 37.4516 305.606 37.4516H301.688C301.221 37.4516 300.74 37.4516 300.245 37.4516C299.777 37.4516 299.282 37.4796 298.76 37.5357H295.873C295.378 37.4796 294.938 37.4516 294.553 37.4516C294.168 37.4516 293.783 37.4516 293.398 37.4516H289.067C288.792 37.4516 288.531 37.4375 288.284 37.4095C288.036 37.3814 287.775 37.3394 287.5 37.2833C287.362 37.2272 287.225 37.171 287.087 37.1149C286.977 37.0869 286.854 37.0448 286.716 36.9887C286.469 36.9046 286.235 36.7783 286.015 36.61C285.85 36.4136 285.713 36.2032 285.603 35.9788C285.52 35.7264 285.479 35.4178 285.479 35.0531C285.479 34.5201 285.658 34.0432 286.015 33.6224C286.18 33.37 286.441 33.2017 286.799 33.1175C286.964 33.0614 287.129 33.0193 287.294 32.9913C287.459 32.9352 287.61 32.8791 287.747 32.823C287.94 32.7669 288.091 32.7388 288.201 32.7388C288.311 32.7388 288.421 32.7388 288.531 32.7388H304.122C304.397 32.7388 304.658 32.7388 304.905 32.7388C305.153 32.7388 305.387 32.7669 305.606 32.823C305.826 32.823 306.033 32.837 306.225 32.865C306.418 32.8931 306.624 32.9352 306.844 32.9913ZM291.748 17.8852C291.666 18.4181 291.666 18.9792 291.748 19.5683C291.886 20.2415 292.064 20.7886 292.284 21.2093C292.834 22.079 293.645 22.7242 294.718 23.1449C295.103 23.2852 295.488 23.3834 295.873 23.4395C296.285 23.4956 296.684 23.5237 297.069 23.5237C297.289 23.4675 297.495 23.4395 297.687 23.4395C297.88 23.4395 298.086 23.4114 298.306 23.3553C298.499 23.3553 298.677 23.3133 298.842 23.2291C299.035 23.1449 299.227 23.0608 299.42 22.9766C299.942 22.7242 300.382 22.3034 300.74 21.7143C300.932 21.4057 301.07 21.1112 301.152 20.8306C301.234 20.5501 301.317 20.2556 301.399 19.947C301.509 19.4701 301.537 19.0213 301.482 18.6005C301.454 18.1797 301.372 17.7309 301.234 17.254C301.179 17.0576 301.097 16.8753 300.987 16.707C300.905 16.5106 300.822 16.3423 300.74 16.202C300.657 16.1179 300.588 16.0337 300.533 15.9496C300.478 15.8373 300.396 15.7532 300.286 15.6971C300.203 15.5007 300.038 15.3184 299.791 15.1501C299.571 15.0098 299.351 14.8976 299.131 14.8134C299.021 14.7293 298.897 14.6592 298.76 14.6031C298.65 14.5469 298.526 14.4908 298.389 14.4347C297.674 14.2664 296.945 14.1823 296.203 14.1823C295.845 14.1823 295.501 14.2103 295.171 14.2664C294.841 14.3225 294.525 14.4207 294.223 14.561C293.92 14.7012 293.632 14.8695 293.357 15.0659C293.082 15.2342 292.834 15.4727 292.614 15.7812C292.394 16.0618 292.216 16.3844 292.078 16.749C291.968 17.0857 291.858 17.4644 291.748 17.8852Z" fill="#0046B6"/>
<path d="M281.508 22.1772C281.673 22.1772 281.824 22.1912 281.961 22.2193C282.126 22.2473 282.291 22.2754 282.456 22.3034C282.759 22.3595 283.061 22.4717 283.364 22.64C283.666 22.7803 283.9 23.0047 284.065 23.3133C284.23 23.6499 284.312 24.0286 284.312 24.4494C284.312 24.6458 284.312 24.8421 284.312 25.0385C284.312 25.2349 284.285 25.4312 284.23 25.6276C284.175 25.852 284.106 26.0905 284.024 26.3429C283.941 26.5954 283.817 26.7918 283.652 26.932C283.295 27.2125 282.91 27.3949 282.498 27.479C281.948 27.5632 281.398 27.6053 280.848 27.6053C280.298 27.5772 279.734 27.5492 279.157 27.5211C279.157 28.1663 279.143 28.8817 279.115 29.6671C279.115 30.4245 279.115 31.21 279.115 32.0235C279.115 32.837 279.115 33.6505 279.115 34.464C279.115 35.2495 279.115 35.9789 279.115 36.6521C279.115 37.0168 279.115 37.4095 279.115 37.8303C279.115 38.2791 279.074 38.714 278.992 39.1347C278.937 39.5555 278.841 39.9623 278.703 40.355C278.593 40.7477 278.414 41.0703 278.167 41.3228C277.754 41.6875 277.273 41.8698 276.723 41.8698C276.063 41.8418 275.527 41.6314 275.115 41.2386C274.73 40.874 274.441 40.4251 274.249 39.8921C274.056 39.3591 273.932 38.7981 273.877 38.209C273.822 37.648 273.795 37.143 273.795 36.6942V11.6997C273.795 11.6716 273.795 11.5454 273.795 11.321C273.795 11.0685 273.809 10.788 273.836 10.4794C273.891 10.1428 273.974 9.80616 274.084 9.46953C274.221 9.10485 274.4 8.8103 274.62 8.58589C274.84 8.38952 275.128 8.24926 275.486 8.1651C275.843 8.05289 276.173 7.99679 276.476 7.99679C277.108 7.99679 277.631 8.20718 278.043 8.62796C278.401 9.02069 278.607 9.44148 278.662 9.89031C278.744 10.3111 278.813 10.7599 278.868 11.2368C278.896 11.5454 278.923 12.0083 278.951 12.6254C279.005 13.2425 279.047 13.9298 279.074 14.6872C279.102 15.4166 279.115 16.188 279.115 17.0015C279.143 17.8151 279.157 18.5725 279.157 19.2738C279.184 19.9751 279.198 20.5922 279.198 21.1252C279.198 21.6302 279.198 21.9668 279.198 22.1351L281.508 22.1772ZM251.976 14.7293C251.426 14.3927 251.069 13.9018 250.904 13.2566C250.766 12.6675 250.821 12.1625 251.069 11.7418C251.234 11.4612 251.385 11.2088 251.522 10.9843C251.66 10.7599 251.839 10.5776 252.059 10.4373C252.279 10.2971 252.581 10.1989 252.966 10.1428C253.351 10.0586 253.873 10.0165 254.533 10.0165H264.597C267.787 10.1568 269.712 11.1527 270.372 13.0041C270.619 13.7335 270.756 14.4768 270.784 15.2343C270.839 15.9636 270.853 16.693 270.825 17.4223V18.0956C270.825 18.2639 270.825 18.5164 270.825 18.853C270.825 19.1616 270.825 19.4982 270.825 19.8629C270.825 20.2276 270.825 20.5642 270.825 20.8727C270.853 21.1813 270.866 21.4198 270.866 21.5881C270.866 22.2613 270.866 22.9486 270.866 23.6499C270.894 24.3232 270.88 24.9964 270.825 25.6697C270.825 25.9221 270.784 26.2728 270.701 26.7216C270.619 27.1705 270.495 27.6333 270.33 28.1102C270.193 28.5591 270 28.9798 269.753 29.3726C269.505 29.7653 269.203 30.0458 268.845 30.2141C268.461 30.3824 268.076 30.4666 267.691 30.4666C267.058 30.4666 266.508 30.2141 266.041 29.7092C265.573 29.2043 265.271 28.531 265.133 27.6894C265.078 27.3809 265.037 26.399 265.01 24.744C264.982 23.0608 264.968 20.9569 264.968 18.4322V16.8753C264.941 16.5948 264.872 16.3143 264.762 16.0337C264.652 15.7532 264.46 15.5849 264.185 15.5288C263.937 15.4727 263.704 15.4306 263.484 15.4026C263.291 15.3745 263.209 15.3605 263.236 15.3605C263.154 15.3605 263.03 15.3605 262.865 15.3605C262.7 15.3605 262.397 15.3605 261.957 15.3605C261.545 15.3324 260.94 15.3184 260.143 15.3184C259.345 15.2904 258.273 15.2763 256.926 15.2763C256.706 15.2763 256.486 15.2904 256.266 15.3184C256.046 15.3184 255.826 15.3184 255.606 15.3184C255.358 15.3184 255.097 15.3184 254.822 15.3184C254.547 15.3184 254.217 15.2904 253.832 15.2343C253.53 15.1782 253.214 15.1361 252.884 15.108C252.581 15.0519 252.279 14.9257 251.976 14.7293ZM270.866 34.0433C271.169 34.2396 271.403 34.5061 271.568 34.8427C271.733 35.1513 271.829 35.4879 271.856 35.8526C271.911 36.2173 271.898 36.582 271.815 36.9467C271.76 37.3113 271.664 37.6199 271.526 37.8724C271.279 38.3212 270.921 38.5877 270.454 38.6719C269.987 38.7841 269.533 38.8402 269.093 38.8402H252.801C252.801 38.8402 252.719 38.8262 252.554 38.7981C252.389 38.7981 252.196 38.7701 251.976 38.714C251.756 38.6859 251.522 38.6438 251.275 38.5877C251.028 38.5316 250.808 38.4615 250.615 38.3773C250.038 38.0687 249.68 37.4937 249.543 36.6521C249.488 36.2033 249.515 35.7825 249.625 35.3898C249.763 34.997 249.969 34.6744 250.244 34.422C250.739 34.0012 251.248 33.7347 251.77 33.6225C252.32 33.5103 252.829 33.4542 253.296 33.4542C253.489 33.4542 253.901 33.4682 254.533 33.4962C255.166 33.4962 255.963 33.5103 256.926 33.5383L257.049 21.9668C257.159 21.6302 257.324 21.3496 257.544 21.1252C257.764 20.8728 258.025 20.6764 258.328 20.5361C258.63 20.4239 258.947 20.3678 259.277 20.3678C259.882 20.3678 260.418 20.5361 260.885 20.8727C261.353 21.1813 261.655 21.5881 261.793 22.093C261.82 22.1491 261.834 22.4577 261.834 23.0187C261.861 23.5798 261.875 24.2671 261.875 25.0806C261.903 25.866 261.916 26.7216 261.916 27.6474C261.944 28.5731 261.957 29.4567 261.957 30.2983C261.957 31.1118 261.957 31.8131 261.957 32.4022C261.957 32.9913 261.957 33.356 261.957 33.4962V33.5383C262.04 33.5664 262.315 33.5804 262.782 33.5804C263.25 33.5804 263.8 33.5804 264.432 33.5804C265.092 33.5523 265.793 33.5383 266.536 33.5383C267.278 33.5383 267.993 33.5383 268.68 33.5383C269.588 33.5383 270.317 33.7066 270.866 34.0433Z" fill="#0046B6"/>
<path d="M223.649 27.7736C223.814 27.6053 223.965 27.4089 224.103 27.1845C224.268 26.932 224.392 26.7637 224.474 26.6795V17.1698C224.337 17.2259 224.213 17.24 224.103 17.2119C223.993 17.1839 223.869 17.1698 223.732 17.1698H222.618C221.656 17.1698 220.817 17.1558 220.102 17.1278C219.415 17.0997 218.975 17.0576 218.782 17.0015C218.287 16.8893 217.861 16.707 217.504 16.4545C217.174 16.174 216.926 15.7813 216.761 15.2763C216.706 15.08 216.665 14.8976 216.638 14.7293C216.61 14.561 216.624 14.3646 216.679 14.1402C216.679 13.8597 216.816 13.509 217.091 13.0882C217.174 12.948 217.297 12.8218 217.462 12.7095C217.627 12.5973 217.792 12.4992 217.957 12.415C218.122 12.2747 218.287 12.1906 218.452 12.1625C218.617 12.1064 218.782 12.0503 218.947 11.9942H224.392C224.392 11.6856 224.405 11.2789 224.433 10.7739C224.46 10.241 224.474 9.84822 224.474 9.59575C224.529 9.23107 224.612 8.90847 224.722 8.62795C224.832 8.31937 224.955 8.03885 225.093 7.78638C225.423 7.25339 225.904 6.90274 226.536 6.73442C226.839 6.59416 227.141 6.53806 227.444 6.56611C227.774 6.59416 228.09 6.67832 228.392 6.81858C228.612 6.90274 228.805 7.02897 228.97 7.19729C229.162 7.33755 229.3 7.50586 229.382 7.70223C229.712 8.09496 229.918 8.48769 230.001 8.88042C230.056 9.10484 230.097 9.34328 230.125 9.59575C230.152 9.84822 230.166 10.1007 230.166 10.3532V11.9942H232.971C233.521 11.9942 234.015 12.0082 234.455 12.0363C234.895 12.0643 235.308 12.1064 235.693 12.1625C236.078 12.2467 236.421 12.401 236.724 12.6254C237.054 12.8218 237.329 13.1023 237.549 13.467C237.769 13.8316 237.879 14.2244 237.879 14.6451C237.961 14.9537 237.906 15.3044 237.714 15.6971C237.384 16.3423 236.738 16.7771 235.775 17.0015C235.473 17.0576 235.129 17.0857 234.744 17.0857C234.387 17.0857 234.002 17.1137 233.589 17.1698C233.149 17.1698 232.641 17.1839 232.063 17.2119C231.486 17.24 230.853 17.2259 230.166 17.1698C230.166 17.3943 230.152 17.6608 230.125 17.9693C230.125 18.2779 230.125 18.5865 230.125 18.8951C230.125 19.2036 230.125 19.4982 230.125 19.7787C230.125 20.0312 230.138 20.2416 230.166 20.4099V25.0385C230.166 25.1787 230.152 25.319 230.125 25.4593C230.097 25.5715 230.111 25.7117 230.166 25.8801V26.5533C230.303 26.6655 230.427 26.8198 230.537 27.0162C230.675 27.1845 230.853 27.3808 231.073 27.6053C231.266 27.7736 231.417 27.9419 231.527 28.1102C231.665 28.2785 231.802 28.4328 231.939 28.5731C232.077 28.7414 232.201 28.9097 232.311 29.078C232.448 29.2463 232.599 29.4146 232.764 29.5829C232.902 29.7232 233.039 29.8915 233.177 30.0879C233.314 30.2843 233.466 30.4666 233.631 30.6349C233.713 30.7752 233.796 30.9014 233.878 31.0136C233.96 31.1258 234.043 31.224 234.125 31.3082C234.29 31.5606 234.428 31.7991 234.538 32.0235C234.813 32.3601 235.074 32.7108 235.322 33.0754C235.569 33.4121 235.817 33.8048 236.064 34.2536C236.366 34.6464 236.6 35.0531 236.765 35.4739C236.958 35.8666 237.095 36.2594 237.178 36.6521C237.26 37.0448 237.26 37.4516 237.178 37.8724C237.095 38.2932 236.903 38.6719 236.6 39.0085C236.215 39.3451 235.707 39.5134 235.074 39.5134C234.772 39.5134 234.483 39.4713 234.208 39.3872C233.96 39.3311 233.686 39.2329 233.383 39.0926C233.108 38.9243 232.861 38.742 232.641 38.5456C232.448 38.3773 232.242 38.209 232.022 38.0407C231.775 37.7882 231.541 37.5077 231.321 37.1991C231.101 36.9186 230.881 36.6521 230.661 36.3996C230.441 36.1472 230.221 35.8807 230.001 35.6001C229.808 35.2916 229.602 34.983 229.382 34.6744C229.08 34.3658 228.75 33.9591 228.392 33.4541C228.227 33.2017 228.035 32.9913 227.815 32.823C227.623 32.6266 227.444 32.4443 227.279 32.276C227.114 32.5004 226.949 32.7248 226.784 32.9492C226.619 33.1456 226.454 33.356 226.289 33.5804C226.096 33.8048 225.918 34.0152 225.753 34.2116C225.588 34.4079 225.423 34.6183 225.258 34.8427C225.093 35.1232 224.9 35.4038 224.68 35.6843C224.488 35.9648 224.282 36.2313 224.062 36.4838C223.897 36.7643 223.704 37.0448 223.484 37.3254C223.292 37.6059 223.058 37.8724 222.783 38.1248C222.233 38.6859 221.711 39.0646 221.216 39.261C220.748 39.4854 220.267 39.5976 219.772 39.5976C219.635 39.5976 219.497 39.5976 219.36 39.5976C219.25 39.5976 219.126 39.5695 218.989 39.5134C218.411 39.3451 217.985 38.9664 217.71 38.3773C217.517 37.9285 217.462 37.4796 217.545 37.0308C217.6 36.7503 217.655 36.4978 217.71 36.2734C217.765 36.0209 217.861 35.8105 217.999 35.6422C218.081 35.4178 218.177 35.2074 218.287 35.011C218.397 34.7866 218.521 34.5622 218.659 34.3378C218.796 34.1695 218.92 33.9871 219.03 33.7908C219.167 33.5944 219.332 33.398 219.525 33.2017C219.607 33.1175 219.69 33.0193 219.772 32.9071C219.855 32.7949 219.937 32.6967 220.02 32.6126L220.515 31.8552C220.597 31.6588 220.693 31.5045 220.803 31.3923C220.913 31.2521 221.078 31.0276 221.298 30.7191C221.518 30.4666 221.724 30.2141 221.917 29.9616C222.109 29.7092 222.288 29.4707 222.453 29.2463C222.673 28.9938 222.879 28.7414 223.072 28.4889C223.292 28.2364 223.484 27.998 223.649 27.7736ZM246.21 38.3773C246.155 38.5456 246.128 38.7139 246.128 38.8823C246.128 39.0506 246.1 39.2189 246.045 39.3872C246.045 39.836 245.922 40.3129 245.674 40.8178C245.454 41.3228 245.152 41.6875 244.767 41.9119C244.464 42.0522 244.134 42.1363 243.777 42.1644C243.447 42.2205 243.131 42.2205 242.828 42.1644C242.223 42.0241 241.783 41.7155 241.508 41.2386C241.233 40.7898 241.055 40.2849 240.972 39.7238C240.917 39.4994 240.89 39.289 240.89 39.0926C240.89 38.8963 240.862 38.6859 240.807 38.4615C240.807 38.0687 240.821 37.6199 240.848 37.115C240.876 36.6381 240.89 36.1612 240.89 35.6843C240.835 34.6464 240.821 33.6365 240.848 32.6547C240.876 31.6448 240.89 30.6068 240.89 29.5409C240.89 28.3346 240.876 27.1284 240.848 25.9221C240.821 24.6878 240.835 23.4535 240.89 22.2192V10.6477C240.945 10.4233 240.986 10.2269 241.013 10.0586C241.041 9.8903 241.082 9.72198 241.137 9.55367C241.22 9.38536 241.288 9.23107 241.343 9.09081C241.398 8.95055 241.495 8.83834 241.632 8.75418C241.77 8.61392 241.921 8.50171 242.086 8.41756C242.251 8.30535 242.416 8.24924 242.581 8.24924C242.746 8.19314 242.911 8.15106 243.076 8.12301C243.241 8.09496 243.406 8.08093 243.571 8.08093C244.066 8.08093 244.492 8.22119 244.849 8.50171C245.262 8.75418 245.55 9.13289 245.715 9.63783C245.99 10.1989 246.128 10.802 246.128 11.4472C246.183 12.3168 246.21 13.1724 246.21 14.014C246.21 14.8275 246.21 15.6691 246.21 16.5387C246.293 17.7169 246.293 18.8951 246.21 20.0732V38.3773Z" fill="#0046B6"/>
<path d="M182.094 26.7216C181.571 27.1985 180.994 27.6894 180.361 28.1943C179.756 28.6993 179.096 29.064 178.382 29.2884C177.887 29.4286 177.35 29.4146 176.773 29.2463C176.196 29.078 175.756 28.7834 175.453 28.3627C175.233 28.026 175.123 27.7034 175.123 27.3949C175.123 27.0863 175.178 26.7917 175.288 26.5112C175.426 26.2026 175.591 25.9081 175.783 25.6276C175.976 25.347 176.182 25.0805 176.402 24.8281C177.227 23.8463 178.038 22.9205 178.835 22.0509C179.66 21.1813 180.54 20.3257 181.475 19.4841C181.777 19.2317 182.176 18.867 182.671 18.3901C183.166 17.9132 183.647 17.4363 184.115 16.9594C184.665 16.4264 185.256 15.8373 185.888 15.1921C185.833 14.3506 185.819 13.5511 185.847 12.7937C185.874 12.1485 185.943 11.5173 186.053 10.9002C186.163 10.255 186.369 9.77807 186.672 9.4695C187.029 9.13287 187.538 8.92248 188.198 8.83832C188.858 8.72611 189.408 8.74014 189.848 8.8804C190.48 9.07677 190.948 9.41339 191.25 9.89028C191.58 10.3672 191.786 10.9282 191.869 11.5734C191.896 11.8259 191.896 12.1345 191.869 12.4991C191.841 12.8638 191.827 13.2285 191.827 13.5932C191.827 13.9579 191.855 14.3085 191.91 14.6451C191.965 14.9818 192.075 15.2483 192.24 15.4446C192.735 16.1179 193.312 16.8192 193.972 17.5485C194.66 18.2779 195.361 19.0213 196.076 19.7787C196.818 20.5361 197.547 21.3075 198.262 22.093C198.977 22.8504 199.65 23.6078 200.283 24.3652C200.585 24.7299 200.888 25.1507 201.19 25.6276C201.493 26.0764 201.699 26.5252 201.809 26.9741C201.946 27.4229 201.946 27.8577 201.809 28.2785C201.671 28.6993 201.314 29.0499 200.736 29.3305C200.324 29.5268 199.911 29.611 199.499 29.5829C199.114 29.5549 198.729 29.4567 198.344 29.2884C197.959 29.1201 197.602 28.9097 197.272 28.6572C196.942 28.4047 196.639 28.1382 196.364 27.8577L188.899 20.8727L182.094 26.7216ZM201.108 34.3799C201.19 34.4079 201.273 34.4219 201.355 34.4219C201.438 34.3939 201.52 34.3799 201.603 34.3799C202.07 34.436 202.496 34.5341 202.881 34.6744C203.294 34.7866 203.692 35.011 204.077 35.3477C204.462 35.7404 204.655 36.2313 204.655 36.8204C204.655 37.129 204.6 37.4516 204.49 37.7882C204.407 38.1529 204.283 38.4334 204.118 38.6298C203.899 38.8542 203.624 39.0225 203.294 39.1347C202.964 39.2469 202.647 39.317 202.345 39.3451C202.043 39.4012 201.768 39.4293 201.52 39.4293C201.3 39.4293 201.176 39.4293 201.149 39.4293H178.052C177.914 39.4293 177.777 39.4293 177.639 39.4293C177.502 39.4573 177.364 39.4713 177.227 39.4713C176.649 39.4994 176.031 39.4854 175.371 39.4293C174.711 39.4012 174.147 39.1908 173.68 38.7981C173.102 38.2651 172.813 37.662 172.813 36.9887C172.813 36.5679 172.937 36.1331 173.185 35.6843C173.432 35.2354 173.762 34.9269 174.175 34.7586C174.724 34.5341 175.288 34.4219 175.866 34.4219C176.471 34.4219 177.075 34.4079 177.68 34.3799H177.887C180.554 34.3237 183.276 34.3237 186.053 34.3799L186.012 29.078C186.012 28.8255 186.067 28.559 186.177 28.2785C186.259 28.0541 186.369 27.8156 186.507 27.5632C186.644 27.3107 186.864 27.0723 187.167 26.8478C187.524 26.5954 187.937 26.4691 188.404 26.4691C188.872 26.4411 189.312 26.5252 189.724 26.7216C190.164 26.8899 190.521 27.1704 190.796 27.5632C191.099 27.9278 191.25 28.3627 191.25 28.8676L191.291 34.3799C191.951 34.3799 192.556 34.3799 193.106 34.3799C193.684 34.3518 194.247 34.3378 194.797 34.3378C195.375 34.3378 195.938 34.3518 196.488 34.3799C197.066 34.3799 197.671 34.3799 198.303 34.3799C198.798 34.4079 199.279 34.4079 199.747 34.3799C200.214 34.3237 200.668 34.3237 201.108 34.3799Z" fill="#0046B6"/>
<path d="M156.497 9.13284C157.377 9.13284 158.092 9.28713 158.642 9.59571C159.192 9.90428 159.618 10.311 159.921 10.816C160.223 11.3209 160.429 11.91 160.539 12.5833C160.677 13.2285 160.746 13.8877 160.746 14.5609V35.0531C160.746 35.0811 160.732 35.2494 160.704 35.558C160.704 35.8385 160.677 36.1752 160.622 36.5679C160.567 36.9606 160.484 37.3674 160.374 37.7882C160.292 38.209 160.168 38.5596 160.003 38.8401C159.783 39.1768 159.453 39.4432 159.013 39.6396C158.601 39.836 158.175 39.9762 157.735 40.0604C157.322 40.1726 156.937 40.2287 156.58 40.2287C156.222 40.2568 156.03 40.2708 156.002 40.2708H148.125C147.877 40.2708 147.492 40.2427 146.97 40.1866C146.475 40.1586 145.952 40.0604 145.402 39.8921C144.852 39.7518 144.33 39.5274 143.835 39.2188C143.368 38.9103 143.024 38.4895 142.804 37.9565C142.419 37.0308 142.199 36.063 142.144 35.0531C142.117 34.0432 142.117 33.0473 142.144 32.0655V16.9173C142.144 16.8332 142.117 16.5527 142.062 16.0758C142.034 15.5708 142.02 15.0098 142.02 14.3926C142.02 13.7474 142.062 13.1022 142.144 12.457C142.226 11.7838 142.378 11.2227 142.598 10.7739C142.873 10.2129 143.244 9.8061 143.711 9.55363C144.179 9.30116 144.687 9.14687 145.237 9.09077C145.815 9.00661 146.392 8.99259 146.97 9.04869C147.575 9.07674 148.125 9.09077 148.619 9.09077H152.084C152.277 9.14687 152.607 9.17492 153.074 9.17492C153.541 9.14687 153.899 9.13284 154.146 9.13284H156.497ZM170.686 38.2931C170.631 38.6297 170.589 38.9523 170.562 39.2609C170.534 39.5975 170.466 39.9342 170.356 40.2708C170.301 40.383 170.259 40.4812 170.232 40.5653C170.204 40.6495 170.163 40.7477 170.108 40.8599C169.916 41.2526 169.668 41.5612 169.366 41.7856C168.733 42.1783 168.032 42.2765 167.262 42.0802C166.822 41.996 166.465 41.8277 166.19 41.5752C165.942 41.3508 165.75 41.0563 165.612 40.6916C165.502 40.3549 165.406 40.0183 165.324 39.6817C165.269 39.3451 165.241 39.0505 165.241 38.798C165.241 38.5456 165.241 38.4053 165.241 38.3773V12.8778C165.241 12.5412 165.241 12.1765 165.241 11.7838C165.241 11.391 165.269 10.9983 165.324 10.6056C165.379 10.2129 165.461 9.84818 165.571 9.51155C165.681 9.17492 165.832 8.90843 166.025 8.71206C166.327 8.40349 166.644 8.22115 166.974 8.16504C167.304 8.08089 167.661 8.03881 168.046 8.03881C168.513 8.03881 168.94 8.17907 169.325 8.45959C169.737 8.71206 170.026 9.07674 170.191 9.55363C170.438 10.1427 170.576 10.7599 170.603 11.4051C170.631 12.0503 170.658 12.6955 170.686 13.3407V13.5511C170.741 15.7111 170.754 17.9272 170.727 20.1994C170.699 22.4717 170.686 24.6177 170.686 26.6374V36.7783C170.686 37.0308 170.686 37.2832 170.686 37.5357C170.713 37.7882 170.713 38.0406 170.686 38.2931ZM147.423 33.4541C147.451 33.6785 147.533 33.9731 147.671 34.3378C147.836 34.7024 148.07 34.9128 148.372 34.9689C148.564 35.025 148.688 35.0531 148.743 35.0531C148.826 35.0531 148.991 35.0531 149.238 35.0531C149.348 35.0531 149.568 35.0531 149.898 35.0531C150.228 35.0531 150.572 35.0531 150.929 35.0531C151.287 35.0531 151.617 35.0531 151.919 35.0531C152.249 35.025 152.483 35.011 152.62 35.011C152.95 34.9829 153.28 34.9549 153.61 34.9268C153.94 34.8707 154.243 34.7585 154.518 34.5902C154.82 34.4219 154.985 34.1274 155.012 33.7066C155.04 33.2858 155.04 32.879 155.012 32.4863V32.0234C155.012 31.5466 155.012 30.9995 155.012 30.3824C155.012 29.7652 155.012 28.9517 155.012 27.9418C155.012 26.932 155.012 25.6696 155.012 24.1548C155.012 22.6119 155.012 20.7044 155.012 18.4321C155.012 18.0675 154.999 17.7168 154.971 17.3802C154.944 17.0716 154.916 16.763 154.889 16.4545C154.889 16.1459 154.875 15.8794 154.847 15.655C154.792 15.122 154.6 14.7994 154.27 14.6872C153.968 14.5469 153.734 14.4768 153.569 14.4768H153.528L149.197 14.3926C148.537 14.3926 148.125 14.4908 147.96 14.6872C147.822 14.8555 147.698 15.136 147.588 15.5287C147.533 15.8093 147.478 16.1319 147.423 16.4965C147.396 16.8612 147.396 17.2259 147.423 17.5906V33.4541Z" fill="#0046B6"/>
<path d="M124.035 22.1351C122.055 22.1351 120.199 22.0509 118.467 21.8826C116.762 21.6862 115.277 21.3216 114.012 20.7886C112.775 20.2556 111.799 19.5122 111.084 18.5584C110.369 17.5766 110.012 16.3142 110.012 14.7714C110.012 13.3688 110.369 12.2046 111.084 11.2789C111.799 10.3251 112.775 9.56769 114.012 9.00665C115.277 8.41755 116.762 8.01079 118.467 7.78638C120.199 7.53391 122.055 7.40767 124.035 7.40767C126.015 7.40767 127.857 7.50585 129.562 7.70222C131.294 7.87053 132.779 8.22118 134.016 8.75418C135.281 9.25911 136.271 10.0025 136.986 10.9843C137.701 11.9381 138.058 13.2004 138.058 14.7714C138.058 16.3142 137.701 17.5766 136.986 18.5584C136.271 19.5122 135.281 20.2556 134.016 20.7886C132.779 21.3216 131.294 21.6862 129.562 21.8826C127.857 22.0509 126.015 22.1351 124.035 22.1351ZM136.244 36.9046C136.271 36.9046 136.367 36.9326 136.532 36.9887C136.697 37.0448 136.876 37.129 137.068 37.2412C137.288 37.3814 137.481 37.5498 137.646 37.7461C137.838 37.9705 137.962 38.223 138.017 38.5035C138.182 39.5695 138.017 40.3971 137.522 40.9862C137.22 41.3789 136.89 41.6173 136.532 41.7015C136.175 41.7856 135.982 41.8277 135.955 41.8277H113.435C112.39 41.8277 111.565 41.6454 110.96 41.2807C110.355 40.9441 110.053 40.4532 110.053 39.808V36.063C109.998 35.4458 109.998 34.8147 110.053 34.1695C110.108 33.5804 110.328 33.1035 110.713 32.7388C111.098 32.3741 111.579 32.1918 112.156 32.1918C112.294 32.1918 112.473 32.2058 112.693 32.2339C112.94 32.2339 113.132 32.2619 113.27 32.318C113.627 32.4302 113.902 32.5985 114.095 32.823C114.287 33.0474 114.439 33.3139 114.549 33.6225C114.659 33.903 114.727 34.2115 114.755 34.5482C114.782 34.8567 114.81 35.1653 114.837 35.4739C114.837 35.6983 114.851 35.9368 114.879 36.1892C114.906 36.4136 114.947 36.624 115.002 36.8204C115.057 36.8485 115.305 36.8905 115.745 36.9466C116.212 36.9747 116.927 36.9887 117.889 36.9887C118.714 36.9887 119.443 36.9747 120.075 36.9466C120.735 36.9186 121.079 36.9046 121.107 36.9046H136.244ZM134.965 24.8702C135.432 24.8702 135.927 24.8702 136.45 24.8702C137 24.8421 137.495 24.8982 137.935 25.0385C138.402 25.1507 138.773 25.3891 139.048 25.7538C139.351 26.1185 139.502 26.6795 139.502 27.4369C139.502 28.1102 139.227 28.6993 138.677 29.2042C138.237 29.597 137.701 29.8214 137.068 29.8775C136.463 29.9055 135.886 29.9055 135.336 29.8775C135.199 29.8494 135.075 29.8354 134.965 29.8354C134.855 29.8354 134.731 29.8354 134.594 29.8354H111.868C111.84 29.8354 111.716 29.8354 111.496 29.8354C111.276 29.8354 111.015 29.8074 110.713 29.7512C110.438 29.6951 110.149 29.625 109.847 29.5409C109.544 29.4286 109.297 29.2603 109.104 29.0359C108.774 28.6712 108.609 28.1803 108.609 27.5632C108.609 26.9741 108.788 26.4972 109.145 26.1325C109.503 25.7959 109.874 25.5154 110.259 25.2909C110.644 25.0665 111.043 24.9263 111.455 24.8702C111.538 24.8702 111.62 24.8842 111.703 24.9122C111.785 24.9122 111.868 24.8982 111.95 24.8702C112.335 24.8141 112.748 24.8141 113.187 24.8702C113.627 24.8982 114.081 24.8982 114.549 24.8702C115.978 24.8141 117.422 24.8 118.879 24.8281C120.364 24.8561 121.904 24.8702 123.499 24.8702C125.231 24.8702 127.073 24.8561 129.026 24.8281C130.978 24.8 132.889 24.8141 134.759 24.8702H134.965ZM124.035 12.1204C123.018 12.1204 122 12.1625 120.983 12.2467C119.993 12.3028 119.099 12.429 118.302 12.6254C117.504 12.8217 116.858 13.1023 116.363 13.4669C115.868 13.8036 115.621 14.2384 115.621 14.7714C115.621 15.7251 116.363 16.4405 117.848 16.9174C119.361 17.3662 121.423 17.5626 124.035 17.5065C125.052 17.5065 126.056 17.4784 127.046 17.4223C128.063 17.3662 128.971 17.254 129.768 17.0857C130.565 16.8893 131.212 16.6088 131.707 16.2441C132.201 15.8794 132.449 15.3885 132.449 14.7714C132.449 14.2384 132.201 13.8036 131.707 13.4669C131.212 13.1023 130.565 12.8217 129.768 12.6254C128.971 12.429 128.063 12.3028 127.046 12.2467C126.056 12.1625 125.052 12.1204 124.035 12.1204Z" fill="#0046B6"/>
<path d="M86.5683 25.5014C86.3758 25.5294 85.9358 25.5434 85.2484 25.5434C84.5885 25.5434 83.8736 25.5434 83.1037 25.5434C82.3337 25.5154 81.6051 25.5014 80.9177 25.5014C80.2302 25.5014 79.7766 25.5014 79.5566 25.5014H79.5153C79.0204 25.5014 78.5255 25.5014 78.0305 25.5014C77.5631 25.4733 77.1094 25.4312 76.6694 25.3751C76.2295 25.291 75.8308 25.1647 75.4733 24.9964C75.1159 24.8281 74.8271 24.5756 74.6072 24.239C74.3597 23.8743 74.181 23.4115 74.071 22.8504C73.9885 22.2894 73.9197 21.7564 73.8648 21.2514C73.8373 20.7185 73.8235 20.2556 73.8235 19.8629C73.851 19.4701 73.8648 19.2597 73.8648 19.2317V18.306C73.8648 17.9974 73.8648 17.6467 73.8648 17.254C73.8648 16.8613 73.8785 16.4265 73.906 15.9496C73.906 15.4446 73.906 14.9958 73.906 14.6031C73.9335 14.2103 73.9472 13.8597 73.9472 13.5511V12.6254C73.9472 12.5412 73.9472 12.3869 73.9472 12.1625C73.9472 11.9381 73.961 11.6997 73.9885 11.4472C74.016 11.1667 74.0572 10.9002 74.1122 10.6477C74.1672 10.3672 74.2497 10.1428 74.3597 9.97446C74.6072 9.58173 74.8546 9.3012 75.1021 9.13289C75.3771 8.93652 75.7208 8.79626 76.1332 8.71211C76.2707 8.68405 76.4769 8.67003 76.7519 8.67003C77.0269 8.64198 77.2881 8.61392 77.5356 8.58587C77.838 8.55782 78.1542 8.54379 78.4842 8.54379H87.8056C88.4105 8.54379 89.043 8.5999 89.7029 8.71211C90.3903 8.79626 90.9952 9.00666 91.5177 9.34328C91.9301 9.59575 92.2188 9.91835 92.3838 10.3111C92.5488 10.7038 92.6588 11.1246 92.7138 11.5734C92.7688 12.0223 92.7825 12.4851 92.755 12.962C92.7275 13.4109 92.7138 13.8316 92.7138 14.2244C92.7138 14.6732 92.7 14.9818 92.6725 15.1501C92.6725 15.2903 92.6863 15.5849 92.7138 16.0337V18.348C92.6863 18.4883 92.6725 18.6426 92.6725 18.8109C92.7 18.9792 92.7138 19.1475 92.7138 19.3158C92.6588 19.6805 92.645 20.0452 92.6725 20.4099C92.7 20.7465 92.7138 21.1112 92.7138 21.5039C92.7138 21.8125 92.6863 22.1491 92.6313 22.5138C92.6038 22.8504 92.5213 23.2011 92.3838 23.5657C92.2738 23.9024 92.1088 24.2109 91.8889 24.4915C91.6964 24.772 91.4352 24.9684 91.1052 25.0806C90.3903 25.3891 89.6341 25.5434 88.8367 25.5434C88.0668 25.5154 87.3107 25.5014 86.5683 25.5014ZM98.1169 28.531C98.8868 28.531 99.5742 28.5871 100.179 28.6993C100.784 28.7835 101.444 29.0219 102.159 29.4146C102.626 29.6952 102.97 30.1159 103.19 30.677C103.41 31.238 103.52 31.8552 103.52 32.5284V36.7783C103.52 37.4796 103.52 38.237 103.52 39.0506C103.52 39.8641 103.355 40.5794 103.025 41.1966C102.833 41.5332 102.571 41.7997 102.241 41.996C101.911 42.2205 101.554 42.3607 101.169 42.4168C100.812 42.4729 100.454 42.4309 100.097 42.2906C99.7667 42.1503 99.5055 41.9119 99.313 41.5753C98.8455 40.7898 98.6118 39.9062 98.6118 38.9243C98.6118 37.9706 98.5981 37.0589 98.5706 36.1892V35.0531C98.5706 34.436 98.4331 34.0152 98.1581 33.7908C97.9107 33.5383 97.5394 33.398 97.0445 33.37C96.797 33.37 96.6183 33.37 96.5083 33.37C96.4258 33.37 96.3433 33.37 96.2608 33.37C96.1784 33.37 96.0821 33.37 95.9721 33.37C95.8896 33.37 95.7247 33.37 95.4772 33.37H94.5698C94.1573 33.37 93.7587 33.37 93.3737 33.37C93.0162 33.3419 92.6863 33.2999 92.3838 33.2438V34.2116C92.3838 34.6043 92.3013 34.997 92.1363 35.3898C91.9714 35.7544 91.6689 36.077 91.2289 36.3575C90.8715 36.5539 90.5003 36.6661 90.1153 36.6942C89.7304 36.7222 89.2629 36.7363 88.713 36.7363H82.485V38.4615H89.1255C89.3729 38.4615 89.6066 38.4615 89.8266 38.4615C90.0466 38.4615 90.2666 38.4755 90.4865 38.5035C90.9265 38.5316 91.3114 38.6298 91.6414 38.7981C91.9714 38.9945 92.2051 39.3171 92.3426 39.7659C92.6725 40.8319 92.3288 41.5753 91.3114 41.996C90.9815 42.1363 90.6378 42.2205 90.2803 42.2485C89.9503 42.2766 89.6341 42.2906 89.3317 42.2906H83.1449C82.595 42.2906 82.0175 42.2906 81.4126 42.2906C80.8352 42.2906 80.244 42.2625 79.6391 42.2064C79.0616 42.1784 78.5805 41.954 78.1955 41.5332C77.8105 41.1405 77.5906 40.6215 77.5356 39.9763C77.4806 39.4994 77.4393 39.2048 77.4118 39.0926C77.4118 38.9804 77.4118 38.728 77.4118 38.3352V36.7363C77.3843 36.4277 77.3843 36.063 77.4118 35.6422C77.4393 35.1934 77.5906 34.8147 77.8655 34.5061C78.223 34.0853 78.7179 33.8188 79.3504 33.7066C80.0103 33.5944 80.6427 33.5383 81.2476 33.5383C81.3576 33.5383 81.4951 33.5383 81.6601 33.5383C81.8526 33.5383 82.155 33.5523 82.5675 33.5804C83.0074 33.5804 83.6124 33.5804 84.3823 33.5804C85.1797 33.5804 86.2658 33.5804 87.6406 33.5804V32.0235H82.2788C82.1138 32.0235 81.9488 32.0235 81.7838 32.0235C81.6463 31.9954 81.5089 31.9954 81.3714 32.0235H80.3402C80.0653 32.0235 79.8178 32.0235 79.5978 32.0235C79.3779 32.0235 79.1579 31.9954 78.9379 31.9393C78.6904 31.8832 78.4705 31.8271 78.278 31.771C78.0855 31.7149 77.9205 31.5746 77.783 31.3502C77.5906 31.0417 77.4668 30.7471 77.4118 30.4666C77.3568 30.158 77.3843 29.8214 77.4943 29.4567C77.5768 29.2323 77.7006 29.05 77.8655 28.9097C78.0305 28.7694 78.223 28.6572 78.443 28.5731C78.6629 28.4889 78.8692 28.4328 79.0616 28.4048C79.2816 28.3486 79.4741 28.3066 79.6391 28.2785C79.859 28.2505 80.0653 28.2364 80.2577 28.2364C80.4777 28.2084 80.7114 28.1944 80.9589 28.1944H81.6601C81.7976 28.2224 81.9213 28.2364 82.0313 28.2364C82.1413 28.2364 82.265 28.2364 82.4025 28.2364H88.0531C89.6479 28.2364 90.8027 28.531 91.5177 29.1201C91.8751 28.8676 92.2601 28.7133 92.6725 28.6572C93.085 28.5731 93.3874 28.531 93.5799 28.531H98.1169ZM102.819 19.9891V23.8182C102.819 24.5476 102.613 25.1928 102.2 25.7538C101.788 26.2868 101.155 26.5533 100.303 26.5533C99.8354 26.5533 99.4505 26.4551 99.148 26.2588C98.5981 25.9221 98.2406 25.5154 98.0756 25.0385C97.9382 24.5335 97.8694 24.1689 97.8694 23.9445V11.363C97.8419 11.2508 97.8557 10.9423 97.9107 10.4373C97.9657 9.93238 98.0756 9.51159 98.2406 9.17497C98.5156 8.58587 99.0655 8.24924 99.8904 8.16509C100.908 8.02483 101.664 8.23522 102.159 8.79626C102.324 9.02068 102.434 9.2451 102.489 9.46952C102.571 9.66588 102.64 9.87627 102.695 10.1007C102.778 10.3532 102.819 10.7178 102.819 11.1947C102.846 11.6716 102.846 12.0503 102.819 12.3308V15.3184C102.929 15.3184 103.135 15.3324 103.438 15.3605C103.74 15.3605 104.056 15.3745 104.386 15.4026C104.716 15.4026 105.032 15.4166 105.335 15.4446C105.637 15.4727 105.857 15.5007 105.995 15.5288C106.545 15.641 106.93 15.8093 107.15 16.0337C107.37 16.2301 107.507 16.4826 107.562 16.7911C107.644 17.0997 107.686 17.4644 107.686 17.8852C107.686 18.2779 107.603 18.6145 107.438 18.8951C107.108 19.4561 106.613 19.7787 105.953 19.8629C105.294 19.919 104.565 19.961 103.767 19.9891H102.819ZM81.2889 13.8036C81.0414 13.8036 80.8077 13.8036 80.5877 13.8036C80.3952 13.8036 80.2165 13.8316 80.0515 13.8877C79.6666 13.9158 79.3503 14.0841 79.1029 14.3927C78.9929 14.5329 78.9242 14.7433 78.8967 15.0239C78.8967 15.3044 78.8967 15.4727 78.8967 15.5288V16.4545C78.8692 16.6789 78.8554 16.8893 78.8554 17.0857C78.8554 17.254 78.8554 17.4083 78.8554 17.5485V18.0535C78.8554 18.0535 78.8554 18.1376 78.8554 18.306C78.8554 18.4743 78.8554 18.6706 78.8554 18.8951C78.8829 19.1195 78.9242 19.3439 78.9791 19.5683C79.0341 19.7927 79.1304 19.9891 79.2679 20.1574C79.4878 20.4379 79.8453 20.6062 80.3402 20.6623C80.8352 20.6904 81.3301 20.7044 81.8251 20.7044H81.8663C82.5812 20.6764 83.1724 20.6764 83.6398 20.7044C84.1073 20.7044 84.7122 20.7044 85.4546 20.7044C85.6746 20.7044 85.8946 20.7184 86.1145 20.7465C86.362 20.7465 86.5957 20.7184 86.8157 20.6623C87.0357 20.6343 87.1869 20.5642 87.2694 20.452C87.3519 20.3397 87.4207 20.1995 87.4756 20.0312C87.5306 19.8068 87.5581 19.6244 87.5581 19.4842C87.6681 18.9512 87.7231 18.348 87.7231 17.6748C87.7231 17.226 87.7231 16.9174 87.7231 16.7491C87.7506 16.5807 87.7506 16.2722 87.7231 15.8233C87.6956 15.5989 87.6819 15.3745 87.6819 15.1501C87.7094 14.9257 87.6956 14.7013 87.6406 14.4768C87.5306 14.1683 87.3519 13.9999 87.1044 13.9719C86.857 13.9158 86.6095 13.8877 86.362 13.8877L81.2889 13.8036Z" fill="#0046B6"/>
</svg>
