<svg width="232" height="120" viewBox="0 0 232 120" fill="none" xmlns="http://www.w3.org/2000/svg">
<path d="M14.368 29.5042C6.43277 29.5042 -1.52588e-05 22.8994 -1.52588e-05 14.7521C-1.52588e-05 6.60473 6.43277 0 14.368 0C22.3032 0 28.7359 6.60473 28.7359 14.7521C28.7359 22.8994 22.3032 29.5042 14.368 29.5042Z" fill="#B4C0FC"/>
<path d="M131.606 29.5042C123.67 29.5042 117.238 22.8994 117.238 14.7521C117.238 6.60473 123.67 0 131.606 0C139.541 0 145.973 6.60473 145.973 14.7521C145.973 22.8994 139.541 29.5042 131.606 29.5042Z" fill="#B4C0FC"/>
<path d="M140.661 50.5166C140.661 45.3817 136.607 41.2191 131.606 41.2191C126.604 41.2191 122.55 45.3817 122.55 50.5166C122.55 65.4023 116.325 78.797 106.385 88.0518L104.345 89.8496L104.286 89.898C95.7832 97.1121 84.8908 101.405 72.987 101.405C45.5758 101.405 23.4238 78.6112 23.4238 50.5166C23.4238 45.3819 19.3694 41.2194 14.3684 41.2191C9.36725 41.2191 5.31299 45.3817 5.31299 50.5166C5.31299 88.8685 35.5613 120 72.987 120C89.2151 120 104.163 114.125 115.823 104.232C130.987 91.5588 140.661 72.1687 140.661 50.5166Z" fill="#B4C0FC"/>
<path d="M232 50.5166C232 45.3817 227.946 41.2191 222.945 41.2191C217.943 41.2191 213.889 45.3817 213.889 50.5166C213.889 78.5982 191.69 101.404 164.267 101.405C152.368 101.405 141.463 97.1138 132.886 89.8798L132.827 89.8314C130.234 87.6808 127.871 85.2051 125.799 82.5072C122.703 78.4749 117.004 77.7844 113.077 80.9636C109.152 84.1428 108.479 89.9886 111.573 94.0201C114.436 97.7479 117.734 101.2 121.395 104.244L121.389 104.25C133.096 114.123 148.034 120 164.267 120C201.68 119.999 232 88.8804 232 50.5166Z" fill="#B4C0FC"/>
</svg>
